<svg xmlns="http://www.w3.org/2000/svg" width="1200" height="675" fill="none" viewBox="0 0 1200 675"><defs><linearGradient id="bg-gradient" x1="0%" x2="100%" y1="0%" y2="100%"><stop offset="0%" stop-color="#0a0b0f"/><stop offset="50%" stop-color="#0f1115"/><stop offset="100%" stop-color="#1a0a20"/></linearGradient><linearGradient id="shell-gradient" x1="0%" x2="100%" y1="0%" y2="100%"><stop offset="0%" stop-color="#ec4899"/><stop offset="100%" stop-color="#00f0ff"/></linearGradient><linearGradient id="me-gradient" x1="0%" x2="100%" y1="0%" y2="0%"><stop offset="0%" stop-color="#ec4899"/><stop offset="100%" stop-color="#8b5cf6"/></linearGradient><filter id="cyan-glow" width="300%" height="300%" x="-100%" y="-100%"><feGaussianBlur result="coloredBlur" stdDeviation="20"/><feMerge><feMergeNode in="coloredBlur"/><feMergeNode in="SourceGraphic"/></feMerge></filter><filter id="chip-glow" width="200%" height="200%" x="-50%" y="-50%"><feGaussianBlur result="coloredBlur" stdDeviation="3"/><feMerge><feMergeNode in="coloredBlur"/><feMergeNode in="SourceGraphic"/></feMerge></filter><filter id="soft-glow" width="200%" height="200%" x="-50%" y="-50%"><feGaussianBlur result="coloredBlur" stdDeviation="40"/><feMerge><feMergeNode in="coloredBlur"/><feMergeNode in="SourceGraphic"/></feMerge></filter><pattern id="grid" width="60" height="60" patternUnits="userSpaceOnUse"><path fill="none" stroke="#1a1d25" stroke-width=".5" d="M 60 0 L 0 0 0 60"/></pattern></defs><rect width="1200" height="675" fill="url(#bg-gradient)"/><rect width="1200" height="675" fill="url(#grid)" opacity=".3"/><ellipse cx="200" cy="200" fill="#ec4899" filter="url(#soft-glow)" opacity=".08" rx="200" ry="200"/><ellipse cx="1000" cy="500" fill="#00f0ff" filter="url(#soft-glow)" opacity=".06" rx="250" ry="250"/><g><g><g><path fill="url(#shell-gradient)" d="M30 25 C30 11.19 41.19 0 55 0 C68.81 0 80 11.19 80 25 L80 42 L30 42 Z" opacity=".95" transform="translate(600, 337.5) translate(0, -100) scale(1.8) translate(-50, -50) rotate(-45 55 50) translate(-5, -5)"/><path fill="url(#shell-gradient)" d="M30 58 L80 58 L80 75 C80 88.81 68.81 100 55 100 C41.19 100 30 88.81 30 75 Z" opacity=".95" transform="translate(600, 337.5) translate(0, -100) scale(1.8) translate(-50, -50) rotate(-45 55 50) translate(5, 5)"/><g filter="url(#chip-glow)" transform="translate(600, 337.5) translate(0, -100) scale(1.8) translate(-50, -50)"><rect width="24" height="24" x="43" y="43" fill="rgba(15, 17, 21, 0.95)" stroke="#00f0ff" stroke-width="2.5" rx="4"/><path stroke="#00f0ff" stroke-linecap="round" stroke-width="2" d="M43 47 H40 M43 55 H40 M43 63 H40"/><path stroke="#00f0ff" stroke-linecap="round" stroke-width="2" d="M67 47 H70 M67 55 H70 M67 63 H70"/><path stroke="#00f0ff" stroke-linecap="round" stroke-width="2" d="M47 43 V40 M55 43 V40 M63 43 V40"/><path stroke="#00f0ff" stroke-linecap="round" stroke-width="2" d="M47 67 V70 M55 67 V70 M63 67 V70"/><path stroke="#00ff94" stroke-linecap="round" stroke-linejoin="round" stroke-width="2.5" d="M48 59 L53 54 L57 58 L63 50 M63 50 H58 M63 50 V55"/></g></g></g><g><text x="0" y="0" fill="#00f0ff" filter="url(#cyan-glow)" font-family="Inter, -apple-system, BlinkMacSystemFont, sans-serif" font-size="72" font-weight="700" opacity=".5" text-anchor="middle" transform="translate(600, 337.5) translate(0, 80)"><tspan>Predict</tspan><tspan fill="#ec4899">Me</tspan></text><text x="0" y="0" fill="#00f0ff" font-family="Inter, -apple-system, BlinkMacSystemFont, sans-serif" font-size="72" font-weight="700" text-anchor="middle" transform="translate(600, 337.5) translate(0, 80)"><tspan>Predict</tspan><tspan fill="url(#me-gradient)">Me</tspan></text></g><text x="0" y="150" fill="#e0e0e0" font-family="Inter, -apple-system, BlinkMacSystemFont, sans-serif" font-size="28" font-weight="400" letter-spacing="2" text-anchor="middle" transform="translate(600, 337.5)">Trade the Future. Predict. Win.</text></g><g stroke="#00f0ff" stroke-width="1" opacity=".15"><line x1="50" x2="200" y1="150" y2="150" stroke-dasharray="8 8"/><line x1="50" x2="180" y1="200" y2="200" stroke-dasharray="8 8"/><line x1="50" x2="160" y1="250" y2="250" stroke-dasharray="8 8"/><line x1="1000" x2="1150" y1="450" y2="450" stroke-dasharray="8 8"/><line x1="1020" x2="1150" y1="500" y2="500" stroke-dasharray="8 8"/><line x1="1040" x2="1150" y1="550" y2="550" stroke-dasharray="8 8"/></g><g fill="#00f0ff" font-family="JetBrains Mono, monospace" font-size="12" opacity=".3"><text x="60" y="145">97,234.50</text><text x="60" y="195">97,184.25</text><text x="60" y="245">97,134.00</text><text x="1060" y="445">97,084.75</text><text x="1060" y="495">97,034.50</text><text x="1060" y="545">96,984.25</text></g></svg>